<svg width="23" height="22" viewBox="0 0 23 22" fill="none" xmlns="http://www.w3.org/2000/svg">
<path d="M21.5223 0L21.3267 0.0366666L14.8 2.56667L7.46669 0L0.573362 2.32222C0.316695 2.40778 0.133362 2.62778 0.133362 2.90889V21.3889C0.133362 21.7311 0.402251 22 0.744473 22L0.940029 21.9633L7.46669 19.4333L14.8 22L21.6934 19.6778C21.95 19.5922 22.1334 19.3722 22.1334 19.0911V0.611111C22.1334 0.268889 21.8645 0 21.5223 0ZM8.68892 3.01889L13.5778 4.73V18.9811L8.68892 17.27V3.01889ZM2.57781 4.22889L6.24447 2.99444V17.2944L2.57781 18.7122V4.22889ZM19.6889 17.7711L16.0223 19.0056V4.71778L19.6889 3.3V17.7711Z" fill="#D7737E"/>
</svg>
