<svg width="257" height="188" viewBox="0 0 257 188" fill="none" xmlns="http://www.w3.org/2000/svg">
<g clip-path="url(#clip0)">
<path d="M231.62 66.1279H231.347C228.381 66.1245 225.537 64.9431 223.439 62.8428C221.342 60.7424 220.162 57.8947 220.159 54.9244V51.0988H186.865V50.5523H220.704V54.9244C220.708 57.7025 221.793 60.3698 223.729 62.3593C225.666 64.3487 228.301 65.5034 231.075 65.5779V50.5523H238.989C240.074 50.5511 241.114 50.1189 241.882 49.3504C242.649 48.582 243.081 47.5402 243.082 46.4535V4.64535C243.081 3.55865 242.649 2.51681 241.882 1.74839C241.114 0.979977 240.074 0.547741 238.989 0.546512H134.741C133.656 0.547741 132.615 0.979977 131.848 1.74839C131.081 2.51681 130.649 3.55865 130.648 4.64535V34.9767H130.102V4.64535C130.103 3.41375 130.592 2.23299 131.462 1.36212C132.332 0.491251 133.511 0.00138646 134.741 0H238.989C240.219 0.00138646 241.398 0.491251 242.268 1.36212C243.137 2.23299 243.627 3.41375 243.628 4.64535V46.4535C243.627 47.6851 243.137 48.8658 242.268 49.7367C241.398 50.6076 240.219 51.0975 238.989 51.0988H231.62V66.1279Z" fill="#CCCCCC"/>
<path d="M221.79 13.8022C221.756 12.9206 221.382 12.0865 220.747 11.4747C220.113 10.8629 219.266 10.5209 218.385 10.5204H155.345C154.44 10.5204 153.573 10.8803 152.933 11.5208C152.293 12.1614 151.934 13.0302 151.934 13.9361C151.934 14.842 152.293 15.7108 152.933 16.3513C153.573 16.9919 154.44 17.3518 155.345 17.3518H218.385C219.289 17.3505 220.156 16.9903 220.795 16.35C221.435 15.7097 221.795 14.8416 221.796 13.9361C221.797 13.8914 221.795 13.8467 221.79 13.8022V13.8022Z" fill="#CCCCCC"/>
<path d="M221.79 25.2789C221.756 24.3972 221.382 23.5631 220.747 22.9514C220.113 22.3396 219.266 21.9976 218.385 21.9971H155.345C154.44 21.9971 153.573 22.3569 152.933 22.9975C152.293 23.6381 151.934 24.5069 151.934 25.4128C151.934 26.3187 152.293 27.1875 152.933 27.828C153.573 28.4686 154.44 28.8285 155.345 28.8285H218.385C219.289 28.8272 220.156 28.4669 220.795 27.8266C221.435 27.1864 221.795 26.3183 221.796 25.4128C221.797 25.3681 221.795 25.3234 221.79 25.2789V25.2789Z" fill="#CCCCCC"/>
<path d="M221.79 36.7557C221.756 35.8741 221.382 35.04 220.747 34.4282C220.113 33.8164 219.266 33.4744 218.385 33.4739H155.345C154.845 33.4739 154.351 33.5841 153.898 33.7966C153.446 34.0091 153.045 34.3187 152.725 34.7035C152.585 34.8738 152.461 35.0568 152.354 35.25H182.498C183.584 35.2514 184.624 35.6836 185.392 36.452C186.159 37.2204 186.591 38.2622 186.592 39.3489V40.3053H218.385C219.289 40.304 220.156 39.9437 220.795 39.3035C221.435 38.6632 221.795 37.7951 221.796 36.8896C221.797 36.8449 221.795 36.8002 221.79 36.7557Z" fill="#CCCCCC"/>
<path d="M6.69085 187.1C6.83931 187.222 6.98784 187.339 7.13982 187.454H44.6373C44.9166 187.339 45.1947 187.221 45.4716 187.1C49.4302 185.375 53.1147 183.078 56.4076 180.282C58.5941 178.427 60.6056 176.512 62.0639 174.717C64.0983 172.213 65.972 169.484 66.8434 166.374C67.7131 163.265 67.4533 159.7 65.5107 157.121C64.9092 156.328 64.1697 155.65 63.3277 155.119C63.1881 155.031 63.0467 154.946 62.9018 154.866C60.485 153.564 57.6658 153.224 55.0095 153.916C51.2533 154.888 48.1318 157.601 45.9047 160.783C43.6775 163.964 42.2316 167.617 40.807 171.229C39.3611 164.781 34.9828 159.006 29.0685 156.07C23.1559 153.134 15.8098 153.169 10.0228 156.35C8.2019 157.356 6.55709 158.654 5.15303 160.19C5.01347 160.341 4.87728 160.495 4.74298 160.65C1.9202 163.923 0.154346 168.114 0.00943372 172.436C-0.0557184 175.227 0.51163 177.996 1.66885 180.536C2.82608 183.076 4.54308 185.32 6.69085 187.1V187.1Z" fill="#F2F2F2"/>
<path d="M43.1384 187.454H43.6687C43.6757 187.335 43.6846 187.218 43.6952 187.1C43.8806 184.785 44.2686 182.49 44.8547 180.243C46.1996 175.113 48.4968 170.282 51.6264 166.003C54.7469 161.71 58.6809 158.073 63.204 155.302C63.2371 155.283 63.2654 155.257 63.2869 155.225C63.3083 155.193 63.3223 155.157 63.3277 155.12C63.3363 155.07 63.3308 155.019 63.3117 154.973C63.2926 154.926 63.2607 154.886 63.2197 154.858C63.1788 154.829 63.1305 154.812 63.0804 154.809C63.0304 154.807 62.9807 154.819 62.9371 154.843C62.9249 154.85 62.9131 154.858 62.9018 154.866C60.3392 156.43 57.9604 158.278 55.8102 160.374C51.9641 164.131 48.8628 168.583 46.67 173.495C44.7356 177.796 43.5507 182.398 43.1666 187.1C43.156 187.218 43.1472 187.337 43.1384 187.454Z" fill="white"/>
<path d="M4.74295 160.65C4.74678 160.652 4.75098 160.653 4.75529 160.654C5.14238 160.725 5.53128 160.799 5.91665 160.879C9.07976 161.529 12.1762 162.47 15.1664 163.691C18.1488 164.91 21.0176 166.39 23.7392 168.116C26.4643 169.84 29.034 171.799 31.4193 173.97C33.8046 176.139 35.9926 178.515 37.9576 181.071C39.4262 182.986 40.7615 185.001 41.9541 187.099C42.0212 187.216 42.0866 187.335 42.1521 187.453H42.7583C42.6947 187.335 42.6293 187.216 42.5621 187.099C41.1194 184.528 39.4651 182.081 37.6164 179.784C35.5721 177.243 33.3059 174.889 30.8448 172.749C28.3994 170.622 25.7747 168.71 23.0003 167.036C20.2143 165.355 17.2852 163.924 14.2472 162.76C11.2991 161.631 8.25537 160.771 5.15299 160.19C5.06643 160.174 4.98159 160.158 4.89494 160.142C4.56446 160.082 4.423 160.581 4.74295 160.65Z" fill="white"/>
<path d="M15.2874 179.126C18.9799 178.618 22.7299 178.702 26.3958 179.377C30.051 180.046 33.5798 181.281 36.8551 183.038C38.6957 184.029 40.4427 185.185 42.0746 186.491C42.3411 186.705 41.9638 187.078 41.6996 186.867C38.8362 184.586 35.6264 182.779 32.1923 181.516C28.7853 180.254 25.2041 179.526 21.5754 179.359C19.5222 179.264 17.4646 179.358 15.4284 179.638C15.3606 179.654 15.2893 179.644 15.2287 179.61C15.1682 179.575 15.123 179.519 15.1022 179.453C15.0839 179.385 15.0931 179.312 15.1278 179.251C15.1625 179.19 15.2198 179.145 15.2874 179.126H15.2874Z" fill="white"/>
<path d="M182.226 35.25H77.978C76.7482 35.2517 75.5691 35.7417 74.6995 36.6125C73.8298 37.4833 73.3405 38.6639 73.3387 39.8953V81.7035C73.3405 82.935 73.8298 84.1155 74.6995 84.9863C75.5691 85.8571 76.7482 86.3471 77.978 86.3488H85.3463V101.378H85.6192C88.5857 101.375 91.4298 100.193 93.5275 98.093C95.6251 95.9926 96.805 93.1448 96.8081 90.1744V86.3488H182.226C183.455 86.3471 184.634 85.8571 185.504 84.9863C186.374 84.1155 186.863 82.935 186.865 81.7035V39.8953C186.863 38.6639 186.374 37.4833 185.504 36.6125C184.634 35.7417 183.455 35.2517 182.226 35.25V35.25ZM186.319 81.7035C186.318 82.7902 185.886 83.832 185.119 84.6003C184.351 85.3687 183.311 85.801 182.226 85.8023H96.2623V90.1744C96.2585 92.9524 95.1732 95.6195 93.2367 97.609C91.3003 99.5985 88.6655 100.753 85.8921 100.829V85.8023H77.978C76.8928 85.801 75.8524 85.3687 75.085 84.6003C74.3176 83.832 73.8859 82.7902 73.8845 81.7035V39.8953C73.8859 38.8087 74.3176 37.7669 75.085 36.9985C75.8524 36.2301 76.8928 35.7978 77.978 35.7965H182.226C183.311 35.7978 184.351 36.2301 185.119 36.9985C185.886 37.7669 186.318 38.8087 186.319 39.8953V81.7035Z" fill="#3F3D56"/>
<path d="M161.622 45.7704H98.582C97.7009 45.7709 96.8541 46.1129 96.2192 46.7247C95.5843 47.3365 95.2105 48.1706 95.1762 49.0522C95.1717 49.0967 95.1698 49.1414 95.1708 49.1861C95.172 50.0916 95.5318 50.9596 96.1713 51.5999C96.8108 52.2402 97.6777 52.6005 98.582 52.6018H161.622C162.526 52.6018 163.394 52.2419 164.034 51.6013C164.674 50.9608 165.033 50.092 165.033 49.1861C165.033 48.2802 164.674 47.4114 164.034 46.7708C163.394 46.1303 162.526 45.7704 161.622 45.7704Z" fill="#A41726"/>
<path d="M161.622 57.2471H98.582C97.7009 57.2476 96.8541 57.5896 96.2192 58.2014C95.5843 58.8131 95.2105 59.6472 95.1762 60.5289C95.1717 60.5733 95.1698 60.6181 95.1708 60.6628C95.172 61.5683 95.5318 62.4363 96.1713 63.0766C96.8108 63.7169 97.6777 64.0772 98.582 64.0785H161.622C162.526 64.0785 163.394 63.7186 164.034 63.078C164.674 62.4375 165.033 61.5687 165.033 60.6628C165.033 59.7569 164.674 58.8881 164.034 58.2475C163.394 57.6069 162.526 57.2471 161.622 57.2471Z" fill="#A41726"/>
<path d="M161.622 68.7239H98.582C97.7009 68.7244 96.8541 69.0664 96.2192 69.6782C95.5843 70.29 95.2105 71.1241 95.1762 72.0057C95.1717 72.0502 95.1698 72.0949 95.1708 72.1396C95.172 73.0451 95.5318 73.9131 96.1713 74.5534C96.8108 75.1937 97.6777 75.554 98.582 75.5553H161.622C162.526 75.5553 163.394 75.1954 164.034 74.5548C164.674 73.9143 165.033 73.0455 165.033 72.1396C165.033 71.2337 164.674 70.3649 164.034 69.7243C163.394 69.0837 162.526 68.7239 161.622 68.7239Z" fill="#A41726"/>
<path d="M61.3276 129.173C61.2047 129.173 61.082 129.166 60.9601 129.15C60.5402 129.099 60.1359 128.959 59.7737 128.74C59.4116 128.521 59.0997 128.228 58.8585 127.88C58.6173 127.532 58.4523 127.137 58.3743 126.721C58.2963 126.304 58.307 125.876 58.4058 125.464C58.4292 125.369 58.4574 125.274 58.4905 125.181L49.3853 113.51C48.9845 112.992 48.7611 112.358 48.7483 111.703C48.7355 111.048 48.934 110.406 49.3143 109.873L52.5036 105.438L56.6723 108.658L54.9976 111.539L61.6298 123.179C61.7631 123.191 61.8954 123.213 62.0258 123.243C62.7404 123.415 63.3671 123.844 63.7874 124.447C64.2077 125.051 64.3923 125.788 64.3062 126.519C64.2202 127.25 63.8695 127.923 63.3205 128.413C62.7715 128.902 62.0625 129.173 61.3276 129.173L61.3276 129.173Z" fill="#A0616A"/>
<path d="M77.0851 184.48L80.4309 184.48L82.0224 171.558L77.0846 171.558L77.0851 184.48Z" fill="#A0616A"/>
<path d="M86.8832 187.59L76.3682 187.591L76.368 183.523L82.8204 183.522C83.3539 183.522 83.8822 183.628 84.3751 183.832C84.868 184.036 85.3159 184.336 85.6931 184.714C86.0704 185.091 86.3697 185.54 86.5739 186.033C86.778 186.527 86.8832 187.056 86.8832 187.59V187.59Z" fill="#2F2E41"/>
<path d="M49.5223 184.48L52.868 184.48L54.4596 171.558L49.5217 171.558L49.5223 184.48Z" fill="#A0616A"/>
<path d="M59.3204 187.59L48.8054 187.591L48.8052 183.523L55.2576 183.522C55.7911 183.522 56.3194 183.628 56.8123 183.832C57.3052 184.036 57.7531 184.336 58.1304 184.714C58.5077 185.091 58.8069 185.54 59.0111 186.033C59.2153 186.527 59.3204 187.056 59.3204 187.59V187.59Z" fill="#2F2E41"/>
<path d="M51.5757 106.067L59.0871 108.925L60.921 103.824C61.1645 103.147 61.1611 102.405 60.9113 101.73C60.6615 101.055 60.1815 100.49 59.556 100.135V100.135C58.9233 99.7762 58.1832 99.6555 57.4694 99.7951C56.7556 99.9346 56.1152 100.325 55.6638 100.896L51.5757 106.067Z" fill="#A41726"/>
<path d="M76.4903 174.049C76.1904 174.049 75.8991 173.948 75.6623 173.764C75.4256 173.58 75.2567 173.322 75.1825 173.031C71.4368 158.682 67.6335 151.49 63.5552 143.173C63.4532 142.966 63.2879 142.796 63.0831 142.69C62.8784 142.583 62.645 142.544 62.4168 142.58C62.1887 142.615 61.9777 142.722 61.8146 142.886C61.6515 143.049 61.5448 143.261 61.5099 143.489L56.4547 172.741C56.4043 173.067 56.2371 173.364 55.9843 173.576C55.7315 173.788 55.4103 173.901 55.0807 173.893L47.5755 173.71C47.3934 173.706 47.214 173.666 47.048 173.591C46.8821 173.515 46.7331 173.407 46.6101 173.273C46.4802 173.144 46.3808 172.987 46.3192 172.815C46.2576 172.642 46.2355 172.458 46.2543 172.276C49.6536 149.83 52.3299 129.511 57.4768 123.313C57.6194 123.178 57.783 123.066 57.9611 122.983L57.805 122.959C57.7603 122.952 57.6415 122.934 57.64 122.814L57.6385 122.699L57.7559 122.676C57.9434 122.67 58.1304 122.698 58.3076 122.76L70.0544 124.57C70.3798 124.62 70.6759 124.787 70.8874 125.039C71.099 125.292 71.2116 125.613 71.2044 125.943C71.843 128.934 72.8216 133.449 72.9092 133.672C79.1765 145.602 81.6085 154.997 84.1363 171.04C84.1886 171.38 84.1105 171.728 83.9175 172.013C83.7245 172.297 83.431 172.499 83.096 172.576L76.7963 174.014C76.6959 174.037 76.5933 174.049 76.4903 174.049V174.049Z" fill="#2F2E41"/>
<path d="M69.8981 126.526C69.7927 126.526 69.6876 126.514 69.5851 126.489L58.0201 123.734C57.8428 123.693 57.6759 123.616 57.5297 123.507C57.3835 123.399 57.261 123.261 57.1698 123.104C57.0757 122.94 57.0156 122.76 56.9929 122.573C56.9702 122.386 56.9854 122.196 57.0377 122.015C58.2848 117.686 56.6496 112.319 54.6966 107.165C54.4482 105.657 54.6915 104.11 55.3905 102.752C56.0895 101.394 57.2069 100.298 58.5771 99.6259L58.6085 99.6107L64.6804 99.9176C65.6774 100.179 66.6022 100.664 67.3852 101.335C68.1683 102.006 68.7893 102.846 69.2015 103.792C71.5418 109.277 72.2119 116.314 71.2498 125.307C71.2144 125.641 71.0568 125.951 70.8073 126.176C70.5578 126.401 70.2339 126.526 69.8981 126.526L69.8981 126.526Z" fill="#A41726"/>
<path d="M71.454 114.007C70.8367 114.008 70.2344 113.816 69.7311 113.459L65.2517 110.262L68.4476 106.072L71.3326 107.735L82.9258 101.038C82.9374 100.905 82.9583 100.772 82.9883 100.642C83.1242 100.063 83.4284 99.5376 83.8625 99.132C84.2965 98.7264 84.841 98.4588 85.4269 98.363C86.0129 98.2672 86.6141 98.3476 87.1544 98.5939C87.6947 98.8403 88.15 99.2415 88.4626 99.7469C88.7752 100.252 88.9311 100.839 88.9106 101.433C88.8901 102.027 88.6941 102.602 88.3474 103.085C88.0007 103.567 87.5189 103.936 86.9629 104.145C86.4068 104.353 85.8016 104.392 85.2236 104.256C85.128 104.233 85.0336 104.205 84.9408 104.172L73.295 113.372C72.7701 113.784 72.1216 114.008 71.454 114.007Z" fill="#A0616A"/>
<path d="M63.8306 111.566L70.4754 107.042L67.3526 102.613C66.938 102.025 66.329 101.603 65.6335 101.421C64.9379 101.239 64.2005 101.309 63.5515 101.619V101.619C62.895 101.932 62.372 102.47 62.0771 103.136C61.7821 103.801 61.7345 104.551 61.9429 105.248L63.8306 111.566Z" fill="#A41726"/>
<path d="M60.6349 97.3399C64.3367 97.3399 67.3376 94.3351 67.3376 90.6284C67.3376 86.9218 64.3367 83.917 60.6349 83.917C56.9331 83.917 53.9323 86.9218 53.9323 90.6284C53.9323 94.3351 56.9331 97.3399 60.6349 97.3399Z" fill="#A0616A"/>
<path d="M61.249 97.495C60.243 97.4907 59.467 96.4301 59.512 95.4238C59.5571 94.4174 60.2321 93.5321 61.0454 92.9391C61.8586 92.3461 62.8123 91.9849 63.7192 91.5489C64.6261 91.1129 65.5251 90.5691 66.0851 89.7322C66.4233 89.1845 66.6253 88.5634 66.6739 87.9213C66.7225 87.2791 66.6163 86.6346 66.3643 86.0421C65.8433 84.857 64.9486 83.8756 63.8173 83.2483C62.1369 82.2633 60.1475 81.9484 58.2456 82.3662C56.3437 82.784 54.6687 83.9039 53.5544 85.5027L52.406 88.6337C51.2358 90.0426 51.0502 92.135 51.7695 93.82C52.4889 95.505 54.0205 96.7727 55.7487 97.3754C57.5022 97.9397 59.3793 97.996 61.1633 97.538" fill="#2F2E41"/>
<path d="M54.0067 87.4464C53.5475 86.7374 52.9212 86.1525 52.183 85.7431C51.4447 85.3337 50.6172 85.1125 49.7735 85.0989C48.9297 85.0854 48.0955 85.2799 47.3445 85.6653C46.5935 86.0507 45.9488 86.6153 45.4671 87.3091C44.6608 88.4705 44.368 89.9023 43.8136 91.2032C42.8095 93.5331 40.9833 95.4109 38.684 96.4778C40.6972 96.8323 42.703 95.8068 44.3125 94.545C45.9221 93.2833 47.3376 91.7432 49.1402 90.778C50.5583 90.0215 52.1514 89.6551 53.7571 89.7162" fill="#2F2E41"/>
<path d="M110.424 188H6.44941C6.37704 188 6.30762 187.971 6.25644 187.92C6.20527 187.869 6.17651 187.799 6.17651 187.727C6.17651 187.654 6.20527 187.585 6.25644 187.534C6.30762 187.482 6.37704 187.454 6.44941 187.454H110.424C110.496 187.454 110.566 187.482 110.617 187.534C110.668 187.585 110.697 187.654 110.697 187.727C110.697 187.799 110.668 187.869 110.617 187.92C110.566 187.971 110.496 188 110.424 188Z" fill="#3F3D56"/>
<path d="M240.899 100.012C249.791 100.012 257 92.7935 257 83.8896C257 74.9856 249.791 67.7675 240.899 67.7675C232.007 67.7675 224.798 74.9856 224.798 83.8896C224.798 92.7935 232.007 100.012 240.899 100.012Z" fill="#E6E6E6"/>
<path d="M242.435 95.3807C241.779 95.3624 240.963 95.3394 240.334 94.8798C240.147 94.7372 239.993 94.5554 239.884 94.3471C239.774 94.1388 239.711 93.9089 239.7 93.6738C239.688 93.5066 239.716 93.3391 239.78 93.1843C239.844 93.0296 239.942 92.8917 240.069 92.7815C240.256 92.6415 240.475 92.5507 240.707 92.5174C240.938 92.484 241.174 92.5092 241.393 92.5906L240.858 88.6732L241.251 88.6193L241.88 93.2247L241.552 93.0739C241.171 92.8992 240.649 92.8103 240.325 93.0849C240.245 93.1566 240.183 93.2458 240.143 93.3455C240.103 93.4452 240.087 93.5527 240.096 93.6597C240.106 93.8348 240.153 94.0057 240.234 94.1609C240.316 94.3161 240.43 94.4518 240.568 94.559C241.057 94.9168 241.708 94.963 242.446 94.9837L242.435 95.3807Z" fill="#3F3D56"/>
<path d="M238.914 89.011H236.778V89.4082H238.914V89.011Z" fill="#3F3D56"/>
<path d="M245.657 89.011H243.521V89.4082H245.657V89.011Z" fill="#3F3D56"/>
<path d="M233.066 83.5264C231.346 83.33 230.013 81.6795 229.867 80.0048C229.693 78.0125 230.852 76.1203 232.441 75.0023C234.104 73.8332 236.175 73.3449 238.179 73.2375C242.089 73.0427 245.931 74.3107 248.958 76.7949C250.46 78.0438 251.862 79.6346 252.394 81.5561C252.855 83.2248 252.48 85.1152 251.139 86.284C250.808 86.5704 250.421 86.7848 250.002 86.9139C249.584 87.0429 249.143 87.0836 248.708 87.0336C247.668 86.9255 246.708 86.3779 245.878 85.7731C244.262 84.5968 242.935 82.9581 240.967 82.3433C239.523 81.8926 237.65 82.2894 236.768 83.5963C236.568 83.8955 236.438 84.2363 236.389 84.593C236.371 84.6691 236.382 84.7493 236.421 84.8173C236.459 84.8853 236.522 84.9361 236.597 84.9594C236.673 84.98 236.754 84.9696 236.822 84.9307C236.891 84.8917 236.941 84.8273 236.963 84.7514C237.194 83.1052 239.216 82.4909 240.634 82.8669C242.703 83.415 244.091 85.2631 245.788 86.4372C246.666 87.0931 247.701 87.5067 248.789 87.6367C249.733 87.7108 250.669 87.4229 251.408 86.8312C252.858 85.685 253.412 83.7135 253.091 81.9384C252.72 79.883 251.339 78.1213 249.823 76.7574C246.749 74.0215 242.759 72.5457 238.648 72.6238C236.551 72.672 234.362 73.1055 232.556 74.2154C230.803 75.2919 229.449 77.0929 229.272 79.1865C229.116 81.0292 230.103 82.9566 231.798 83.7639C232.198 83.9534 232.627 84.0745 233.066 84.1222C233.446 84.1656 233.443 83.5694 233.066 83.5264L233.066 83.5264Z" fill="#3F3D56"/>
</g>
<defs>
<clipPath id="clip0">
<rect width="257" height="188" fill="white"/>
</clipPath>
</defs>
</svg>
